PathFileType	4	(X/Y/Z)	Walking01.trc	
DataRate	CameraRate	NumFrames	NumMarkers	Units	OrigDataRate	OrigDataStartFrame	OrigNumFrames	
100.00	100.00	17	19	mm	100.00	435	102	
Frame#	Time	RPSI			LPSI			RASI			LASI			RTHI			RKNE			RHFB			RTUB			RSHN			RANK			RLCA			RSTL			RPCA			RCPG			RHEE			RP5M			RP1M			RD5M			RTOE			
		X1	Y1	Z1	X2	Y2	Z2	X3	Y3	Z3	X4	Y4	Z4	X5	Y5	Z5	X6	Y6	Z6	X7	Y7	Z7	X8	Y8	Z8	X9	Y9	Z9	X10	Y10	Z10	X11	Y11	Z11	X12	Y12	Z12	X13	Y13	Z13	X14	Y14	Z14	X15	Y15	Z15	X16	Y16	Z16	X17	Y17	Z17	X18	Y18	Z18	X19	Y19	Z19	

77	0.760	150.14548	922.01361	81.30642	145.65968	931.87396	-11.78876	341.30972	875.53479	147.48389	339.49579	881.55573	-89.58842	321.06335	577.50464	210.71355	365.43887	447.56561	205.77312	351.88406	413.88641	205.27814	409.62613	382.06189	158.99263	355.46927	322.70093	141.60492	128.27420	179.99974	136.25049	105.68305	168.63712	126.26660	118.99329	164.55035	64.23809	105.95742	201.57207	90.57628	78.90012	206.79811	84.72148	76.76697	173.03745	80.79686	158.34393	88.79974	162.22951	212.09944	113.44555	90.52044	184.32259	68.24287	171.07722	224.36795	65.48436	137.72493 
78	0.770	162.95888	923.10181	82.00732	158.54436	932.91290	-11.24432	354.34406	877.32159	146.81749	351.77649	881.89825	-90.10646	339.51657	579.90729	210.43414	386.95670	450.47778	203.80774	374.81802	415.50046	203.46339	433.45581	386.67691	156.50334	382.67566	324.80194	139.48329	165.05432	168.73392	136.76071	141.82513	156.49451	126.90719	148.32959	156.46535	64.47095	139.93013	189.08705	91.13478	112.12461	192.07796	85.41534	112.45573	158.48393	81.60497	198.34343	79.26924	162.58328	252.04236	108.06702	91.62115	227.34619	61.75488	172.00761	267.67838	61.82201	138.55229 
79	0.780	175.83936	923.83929	82.77977	171.43254	933.64478	-10.61932	367.37790	878.97827	146.53632	364.16174	882.04333	-90.48887	357.38354	581.83606	209.63824	407.97379	452.93146	201.68875	397.15234	416.90817	201.48259	456.51764	391.09457	153.92697	409.38773	326.78580	137.37726	201.87933	157.38483	137.64609	179.12509	143.98662	127.90677	194.08118	139.94991	65.62186	175.43240	175.46294	92.00330	146.04312	175.79144	86.49065	149.25822	143.38611	82.71741	240.43146	70.46510	163.50665	292.51425	102.71252	92.71970	271.19687	55.26790	172.87630	311.44617	58.11482	139.33426 
80	0.790	188.67894	924.20917	83.59510	184.30348	934.04773	-9.92776	380.30661	880.40948	146.54927	376.70331	882.02777	-90.73440	374.88831	583.37079	208.60007	428.16745	455.09219	199.50014	419.21472	417.91495	199.23241	478.77426	395.19006	151.20360	435.45749	328.37881	135.18874	238.17343	146.32507	138.59064	217.71475	130.92960	129.31636	234.40329	126.69748	66.87480	211.64722	161.79720	92.93060	181.84122	159.83669	88.13132	187.48737	127.69982	84.25967	285.08276	63.14914	165.25787	332.58585	96.87276	92.88666	315.72733	48.93104	173.82210	355.60681	55.00945	139.65987 
81	0.800	201.49097	924.17560	84.41212	197.21722	934.07715	-9.16440	393.06985	881.51086	146.81326	389.29236	881.69934	-90.69588	392.12363	584.70111	207.59064	447.62283	456.83884	197.21582	440.20334	418.62045	196.75252	500.17624	398.94376	148.41559	461.05402	329.71503	133.14740	276.28357	134.63864	140.13029	257.00342	117.33623	131.14873	273.99469	114.25612	68.39582	248.73662	148.03261	94.26980	219.08237	144.37830	89.45947	226.98882	112.14495	86.02496	329.71268	55.70264	166.72151	373.54715	91.66208	93.54617	360.96033	43.35925	175.01741	399.88513	51.84680	139.45970 
82	0.810	214.36668	923.79639	85.29340	210.17256	933.74646	-8.30211	405.82700	882.11353	147.24190	401.95532	880.96460	-90.42020	408.81250	585.32605	206.56667	466.25162	458.09204	194.76231	459.28070	419.20914	194.40080	520.63574	402.22827	145.40936	486.14050	330.84680	131.11301	302.38586	126.80196	141.18684	297.25452	104.91907	132.78609	313.93301	102.47889	70.19946	286.90604	134.37094	95.79611	257.66635	128.98500	91.35445	267.66696	97.07484	87.99804	374.77753	48.50809	168.09708	414.94031	86.61921	94.41554	406.63385	38.55783	176.47784	444.49954	48.72662	140.26480 
83	0.820	227.26857	923.06842	86.04039	223.10767	933.04071	-7.39177	418.69504	882.23303	147.85735	414.74057	879.91766	-89.90867	425.16190	585.37341	205.23303	483.94580	458.79565	192.27133	479.50946	419.45511	191.88464	540.13715	404.99741	142.37141	510.48203	331.64944	129.09203				338.45700	93.77995	134.28830	354.66843	91.16776	72.09501	325.91290	121.20341	97.41537	297.24887	114.17210	93.54454	309.07382	82.72183	90.27438	420.48520	42.47644	170.10664	457.47183	83.14061	95.15237	452.59082	34.31007	177.70074	489.11676	48.23479	142.76451 
84	0.830	240.32829	921.91992	86.79440	236.11745	932.03595	-6.39588	431.76526	881.87396	148.63045	427.53033	878.47772	-89.23195	441.08887	584.88702	203.72809	500.81235	458.77911	189.55513	498.37726	419.02158	189.33975	558.70428	407.17355	139.18486	534.28943	332.38577	127.11123	410.23459	99.41098	144.66963	380.54990	82.66834	136.24132	396.30298	80.75256	74.24162	365.76450	108.97795	99.20506	337.13620	99.97253	95.84503	350.77481	69.55751	93.21106	466.31424	37.40586	172.22342	499.73553	79.92490	96.29342	499.48264	31.12739	178.45226	533.50592	47.21390	144.23000 
85	0.840	253.47835	920.38171	87.73602	249.06653	930.72040	-5.29726	445.15253	881.04260	149.45497	440.38907	876.65649	-88.46268	456.56601	583.99542	202.06859	516.81982	458.14114	186.80270	516.22314	417.91153	186.80090	576.47168	408.79404	135.99284	557.29712	332.92715	125.11854	441.11801	93.28961	146.11157	423.14890	72.06004	138.42340	438.69626	71.82430	76.47917	406.01205	97.78426	101.09059	377.41254	86.62951	98.20683	392.64532	57.81261	96.47851	511.71994	32.65345	173.01628	541.67889	77.64113	97.82323	545.54846	28.73581	179.45274	578.91547	47.53109	145.15814 
86	0.850	266.82266	918.45117	88.80717	262.01291	929.15765	-4.01671	458.79550	879.76532	150.23067	453.23938	874.62396	-87.52312	471.69305	582.57507	200.49786	531.87091	456.97995	184.11580	533.19830	416.22101	184.35345	593.50348	409.71265	132.70868	579.63751	333.46463	122.99922	479.60663	86.58881	147.91692	465.34042	63.13744	140.28535	480.82077	64.08617	78.34520	446.55377	87.86265	102.68552	419.22903	75.03092	100.23908	435.81708	47.61354	98.38930	557.02710	29.82699	174.12402	583.44470	76.59832	99.01169	590.89374	28.96688	181.12959	623.25562	49.37111	146.33954 
87	0.860	280.24683	916.26337	90.09318	274.96542	927.57318	-2.51753	472.48441	877.99408	150.83871	466.10767	872.46893	-86.59475	486.11993	580.62939	199.14124	545.95325	455.14551	181.80278	549.46210	413.79257	182.24046	609.87646	409.81961	129.66624	601.38275	333.95212	121.09724	520.07843	80.58031	149.32933	507.10107	55.85684	141.74052	522.30280	57.90604	79.79538	486.94568	79.44791	103.96689	460.66360	65.02304	102.01004	479.88354	38.65662	99.30056	601.56812	28.58187	175.06273	624.41284	77.05342	100.04877	635.44812	30.12859	182.14879	666.53265	52.40669	147.14182 
88	0.870	293.76727	913.95123	91.68890	288.12280	925.83496	-0.71216	486.35696	875.67377	151.26306	478.86646	870.17212	-85.81766	500.09586	578.15717	198.06476	560.52887	451.99533	179.19556	565.15137	410.82397	180.40457	625.87823	409.15561	126.96338	622.34039	334.37711	119.45086	560.11035	76.13146	150.33925	548.78296	50.73368	142.97760	563.41840	53.50195	81.06054	526.29254	72.93091	105.32671	501.55139	56.80710	103.45539	522.58527	31.87999	100.56546	644.99438	29.21901	175.84486	664.27649	79.18306	100.75986	678.59668	32.91713	182.62831	708.68524	56.87462	147.66537 
89	0.880	308.15802	911.29291	93.66765	301.30975	924.09869	1.29735	500.55243	872.86353	151.69188	491.24588	867.58197	-84.95166	513.69153	575.15039	197.42891	574.26532	448.50180	177.12961	580.32281	407.60059	178.78517	641.43536	408.29611	124.70939	642.54315	334.79184	118.12371	598.93475	73.29720	151.03008	590.27637	47.96946	144.14078	603.30212	51.11790	81.30164	564.31946	68.31601	106.72528	541.37817	50.08375	104.84828	563.88647	26.78862	101.91320	686.75934	31.54540	176.28654	702.77667	82.91316	101.05392	719.80542	37.44365	182.65518	749.06836	62.94199	147.96187 
90	0.890	323.11722	908.47803	96.02358	314.67288	922.41162	3.52992	514.99261	869.71783	152.21121	503.04883	864.72498	-84.02068	526.94794	571.67664	197.42807	587.69562	444.85776	175.63155	595.01050	404.51300	177.39388	656.59357	407.44171	122.90434	662.21899	335.37976	117.25632	635.71472	72.26744	151.73776	629.26050	46.24035	144.68571	641.41345	50.10659	81.66496	601.32886	64.88773	107.56239	579.69769	44.83560	106.05250	603.94232	23.65635	102.72882	726.58588	35.26510	176.45854	739.11011	87.93080	101.51808	759.08478	43.16025	182.76399	786.82483	70.69041	148.13281 
91	0.900	336.93991	906.07666	98.54793	328.15518	920.60168	6.08600	529.55438	866.36761	152.89069	515.97296	862.01605	-83.44016	540.02039	567.87585	198.12347	601.07660	441.46460	174.59253	609.70789	401.76416	176.08310	671.53302	406.91907	121.39890	680.97266	336.08572	116.54240	669.84552	72.77529	151.83977	665.90845	45.72152	144.89415	677.60718	50.28677	81.87800	636.67938	62.81425	107.74909	616.34033	41.89263	106.67364	642.27570	22.77986	102.76072	763.91809	40.13892	176.57776	772.85907	94.09664	102.21404	795.56909	50.03160	182.98361	821.52545	79.52073	148.21011 
92	0.910	350.99857	903.74231	101.33737	341.88828	918.63678	8.90003	544.23248	862.80402	153.63310	529.12061	859.19806	-83.02085	552.29938	563.77258	199.05139	614.64325	438.35147	173.78404	624.44806	399.38336	174.85039	686.25739	406.67426	120.09267	699.11060	337.01688	115.95732	702.53925	73.58474	151.73923	699.93811	46.23771	144.86330	711.40070	51.54665	82.04990	669.79089	61.90479	107.74911	651.02795	39.62095	106.37621	677.13281	22.26606	102.73142	798.31116	45.49572	176.84787	804.20111	100.32207	102.80179	829.09381	57.29997	183.58682	854.22693	88.15339	148.13782 
93	0.920	365.42856	901.35522	104.33853	355.83347	916.64496	11.91759	559.01135	859.17047	154.39569	542.34644	856.44122	-82.71086	563.89655	559.53894	199.77939	628.57697	435.58154	172.90460	639.20795	397.24356	173.80983	700.80725	406.41309	118.59650	716.18689	337.93439	115.50076	733.20673	74.31417	151.56261	731.25836	47.36965	144.76921	742.47229	53.26970	82.09272	700.38214	61.81852	107.51534	683.43091	38.07335	105.14639	709.57831	21.20035	102.94761	829.41840	50.79694	177.28017	833.57288	106.02304	103.08138	859.04333	64.38263	184.89243	884.83081	95.96679	147.92513 
